<?xml version="1.0" encoding="UTF-8" standalone="no"?>
<!DOCTYPE svg PUBLIC "-//W3C//DTD SVG 1.1//EN" "http://www.w3.org/Graphics/SVG/1.1/DTD/svg11.dtd">
<svg id="bfs" width="100%" height="100%" viewBox="0 0 744 677" version="1.1" xmlns="http://www.w3.org/2000/svg" xmlns:xlink="http://www.w3.org/1999/xlink" xml:space="preserve" xmlns:serif="http://www.serif.com/" style="fill-rule:evenodd;clip-rule:evenodd;stroke-linejoin:round;stroke-miterlimit:2;">
    <g transform="matrix(1,0,0,1,-686.075,-205.002)">
        <g transform="matrix(1,0,0,1,0,20)">
            <g id="logo" transform="matrix(0.5,0.866025,-0.866025,0.5,365.158,-539.037)">
                <g id="part-3" transform="matrix(-0.669118,-0.669118,0.669118,-0.669118,1180,1402.35)">
                    <g id="arm-3" transform="matrix(0.261538,4.35549e-17,-7.25915e-17,0.435897,827.723,744.172)">
                        <path d="M900,200L800,260L900,800L1000,260L900,200Z" style="fill:white;"/>
                    </g>
                    <g id="dot-3" transform="matrix(-0.435897,4.9877e-18,-4.9877e-18,-0.435897,1542.03,918.024)">
                        <path d="M1100,20C1199.35,20 1280,100.655 1280,200C1280,299.345 1199.35,380 1100,380C1000.65,380 920,299.345 920,200C920,100.655 1000.65,20 1100,20ZM1100,65C1174.51,65 1235,125.491 1235,200C1235,274.509 1174.51,335 1100,335C1025.49,335 965,274.509 965,200C965,125.491 1025.49,65 1100,65Z" style="fill:white;"/>
                    </g>
                </g>
                <g id="part-2" transform="matrix(-0.2983,1.11327,-1.11327,-0.2983,1702.38,-377.048)">
                    <g id="arm-2" transform="matrix(0.261538,0,0,0.435897,159.693,-3.25902)">
                        <path d="M900,200L800,260L900,800L1000,260L900,200Z" style="fill:white;"/>
                    </g>
                    <g id="dot-2" transform="matrix(-0.435897,5.3382e-17,-5.3382e-17,-0.435897,875.164,170.918)">
                        <path d="M1100,20C1199.35,20 1280,100.655 1280,200C1280,299.345 1199.35,380 1100,380C1000.65,380 920,299.345 920,200C920,100.655 1000.65,20 1100,20ZM1100,65C1174.51,65 1235,125.491 1235,200C1235,274.509 1174.51,335 1100,335C1025.49,335 965,274.509 965,200C965,125.491 1025.49,65 1100,65Z" style="fill:white;"/>
                    </g>
                </g>
                <g id="part-1" transform="matrix(1.41176,0,0,1.41176,-368.416,-197.647)">
                    <g id="arm1" transform="matrix(0.261538,-8.71098e-17,1.45183e-16,0.435897,875.528,-237.247)">
                        <path d="M900,200L800,260L900,800L1000,260L900,200Z" style="fill:white;"/>
                    </g>
                    <g id="dot-1" transform="matrix(-0.435897,1.50171e-16,-1.50171e-16,-0.435897,1590.42,-62.3726)">
                        <path d="M1100,20C1199.35,20 1280,100.655 1280,200C1280,299.345 1199.35,380 1100,380C1000.65,380 920,299.345 920,200C920,100.655 1000.65,20 1100,20ZM1100,65C1174.51,65 1235,125.491 1235,200C1235,274.509 1174.51,335 1100,335C1025.49,335 965,274.509 965,200C965,125.491 1025.49,65 1100,65Z" style="fill:white;"/>
                    </g>
                </g>
                <g id="center" transform="matrix(0.5,-0.866025,0.866025,0.5,566.884,56.2058)">
                    <path d="M400,339.987C488.31,339.987 560.007,411.683 560.007,499.993C560.007,588.303 488.31,660 400,660C311.69,660 239.993,588.303 239.993,499.993C239.993,411.683 311.69,339.987 400,339.987ZM400,371.988C470.648,371.988 528.005,429.345 528.005,499.993C528.005,570.641 470.648,627.999 400,627.999C329.352,627.999 271.995,570.641 271.995,499.993C271.995,429.345 329.352,371.988 400,371.988Z" style="fill:white;"/>
                </g>
            </g>
        </g>
    </g>
</svg>
